# xmcd CD database file
#
# Track frame offsets:
#	150
#	12427
#	24372
#	34707
#	51032
#	64362
#	76407
#	88487
#	100310
#	112917
#	126995
#	138457
#	150202
#	161132
#
# Disc length: 2359 seconds
#
# Revision: 0
# Processed by: cddbd v1.4PL0 Copyright (c) Steve Scherf et al.
# Submitted via: Feurio! 1.63 - http://www.feurio.com
#
DISCID=b409350e
DTITLE=Various Artist - Country Road Vol 2
DYEAR=1900
DGENRE=country
TTITLE0=Bobby Bare - 'Roses Are Red My Love
TTITLE1=Ferlin Husky - Money Greases The Wheels
TTITLE2=David Price - Jack Knife
TTITLE3=Bobby Bare - Me And Boby McGee
TTITLE4=Linda Manning - If Only For A Moment
TTITLE5=Ronnie Rogers - It's Good To Know She's There
TTITLE6=Dave Dudley - Eagles Fly Alone
TTITLE7=Dave Dudley - Six Days On The Road
TTITLE8=George Kent - Hardscuffle Road
TTITLE9=Barbara Kerry - Why Can't Women Have A Good Beer Drinking Song
TTITLE10=Billy Grammer -  Mabel, You Have Been A Friend To Me
TTITLE11=Dave Dudley - Mary Lou , You Took The Party With You
TTITLE12=Freddy Quinn - Tom Dooley
TTITLE13=Rick Pilgreen - It I Had A Chance
EXTD=
EXTT0=
EXTT1=
EXTT2=
EXTT3=
EXTT4=
EXTT5=
EXTT6=
EXTT7=
EXTT8=
EXTT9=
EXTT10=
EXTT11=
EXTT12=
EXTT13=
PLAYORDER=
